<svg width="82" height="82" viewBox="0 0 82 82" fill="none" xmlns="http://www.w3.org/2000/svg">
<g clip-path="url(#clip0_11245_67)">
<path d="M41.3715 0.407104C19.0808 0.407104 0.948334 18.5413 0.948334 40.8303C0.948334 63.1193 19.0808 81.2535 41.3715 81.2535C63.6622 81.2535 81.7947 63.1193 81.7947 40.8303C81.7947 18.5413 63.6622 0.407104 41.3715 0.407104ZM41.3715 77.8849C20.9395 77.8849 4.31688 61.2623 4.31688 40.8303C4.31688 20.3983 20.9395 3.77565 41.3715 3.77565C61.8036 3.77565 78.4262 20.3983 78.4262 40.8303C78.4262 61.2623 61.8036 77.8849 41.3715 77.8849Z" fill="white"/>
<path d="M57.4419 39.4141L33.8618 24.2554C33.3453 23.9183 32.6775 23.9001 32.1446 24.1928C31.6017 24.4889 31.2662 25.0548 31.2662 25.6716V55.989C31.2662 56.6058 31.6017 57.1717 32.1446 57.4678C32.3946 57.6044 32.6742 57.6734 32.9505 57.6734C33.2663 57.6734 33.5855 57.5845 33.8618 57.4052L57.4419 42.2465C57.9223 41.9374 58.215 41.4027 58.215 40.8303C58.215 40.2579 57.9223 39.7234 57.4419 39.4141ZM34.6347 52.9033V28.7574L53.4154 40.8303L34.6347 52.9033Z" fill="white"/>
</g>
<defs>
<clipPath id="clip0_11245_67">
<rect width="80.8464" height="80.8464" fill="white" transform="translate(0.948334 0.407104)"/>
</clipPath>
</defs>
</svg>
